# Wavefront OBJ file automatically generated by Tiled2Unity

# Vertices (Count = 76)
v -32 -112 0
v -48 -112 0
v -48 -96 0
v -32 -96 0
v -112 -96 0
v -128 -96 0
v -128 -80 0
v -112 -80 0
v -96 -96 0
v -96 -80 0
v -80 -96 0
v -80 -80 0
v -64 -96 0
v -64 -80 0
v -48 -80 0
v -32 -80 0
v -16 -96 0
v -16 -80 0
v 0 -96 0
v 0 -80 0
v -128 -64 0
v -112 -64 0
v -96 -64 0
v -80 -64 0
v -64 -64 0
v -48 -64 0
v -32 -64 0
v -16 -64 0
v 0 -64 0
v -128 -48 0
v -112 -48 0
v -96 -48 0
v -80 -48 0
v -64 -48 0
v -48 -48 0
v -32 -48 0
v -16 -48 0
v 0 -48 0
v -128 -32 0
v -112 -32 0
v -96 -32 0
v -80 -32 0
v -64 -32 0
v -48 -32 0
v -32 -32 0
v -16 -32 0
v 0 -32 0
v -128 -16 0
v -112 -16 0
v -96 -16 0
v -80 -16 0
v -64 -16 0
v -48 -16 0
v -32 -16 0
v -16 -16 0
v 0 -16 0
v -128 0 0
v -112 0 0
v -96 0 0
v -80 0 0
v -64 0 0
v -48 0 0
v -32 0 0
v -16 0 0
v 0 0 0
v -48 -128 0
v -64 -128 0
v -64 -112 0
v -32 -128 0
v -16 -128 0
v -16 -112 0
v -112 -112 0
v -128 -112 0
v -96 -112 0
v -80 -112 0
v 0 -112 0

# Texture cooridinates (Count = 68)
vt 0.1404979 0.9049467
vt 0.1570228 0.9049467
vt 0.1570228 0.9353575
vt 0.1404979 0.9353575
vt 0.2634318 0.4847946
vt 0.2799567 0.4847946
vt 0.2799567 0.5152054
vt 0.2634318 0.5152054
vt 0.2283078 0.517114
vt 0.2448327 0.517114
vt 0.2448327 0.5475248
vt 0.2283078 0.5475248
vt 0.2634318 0.5494334
vt 0.2799567 0.5494334
vt 0.2799567 0.5798442
vt 0.2634318 0.5798442
vt 0.2283078 0.5494334
vt 0.2448327 0.5494334
vt 0.2448327 0.5798442
vt 0.2283078 0.5798442
vt 0.2458698 0.5817528
vt 0.2623947 0.5817528
vt 0.2623947 0.6121636
vt 0.2458698 0.6121636
vt 0.2283078 0.5817528
vt 0.2448327 0.5817528
vt 0.2448327 0.6121636
vt 0.2283078 0.6121636
vt 0.3863657 0.8079885
vt 0.4028905 0.8079885
vt 0.4028905 0.8383994
vt 0.3863657 0.8383994
vt 0.3863657 0.7756691
vt 0.4028905 0.7756691
vt 0.4028905 0.8060799
vt 0.3863657 0.8060799
vt 0.3688037 0.8079885
vt 0.3853286 0.8079885
vt 0.3853286 0.8383994
vt 0.3688037 0.8383994
vt 0.2634318 0.9372661
vt 0.2799567 0.9372661
vt 0.2799567 0.9676769
vt 0.2634318 0.9676769
vt 0.5268615 0.8403079
vt 0.5433864 0.8403079
vt 0.5433864 0.8707187
vt 0.5268615 0.8707187
vt 0.4917375 0.8403079
vt 0.5082625 0.8403079
vt 0.5082625 0.8707187
vt 0.4917375 0.8707187
vt 0.5092995 0.9049467
vt 0.5258244 0.9049467
vt 0.5258244 0.9353575
vt 0.5092995 0.9353575
vt 0.5268615 0.8726273
vt 0.5433864 0.8726273
vt 0.5433864 0.9030381
vt 0.5268615 0.9030381
vt 0.4917375 0.8726273
vt 0.5082625 0.8726273
vt 0.5082625 0.9030381
vt 0.4917375 0.9030381
vt 0.0001220703 0.0001220703
vt 0.9998779 0.0001220703
vt 0.9998779 0.9998779
vt 0.0001220703 0.9998779

# Normal
vn 0 0 -1

# Groups (Count = 3)

g mesh_0001
f 1/1/1 2/2/1 3/3/1 4/4/1
f 5/5/1 6/6/1 7/7/1 8/8/1
f 9/1/1 5/2/1 8/3/1 10/4/1
f 11/1/1 9/2/1 10/3/1 12/4/1
f 13/1/1 11/2/1 12/3/1 14/4/1
f 3/1/1 13/2/1 14/3/1 15/4/1
f 4/1/1 3/2/1 15/3/1 16/4/1
f 17/1/1 4/2/1 16/3/1 18/4/1
f 19/5/1 17/6/1 18/7/1 20/8/1
f 8/9/1 7/10/1 21/11/1 22/12/1
f 10/1/1 8/2/1 22/3/1 23/4/1
f 12/1/1 10/2/1 23/3/1 24/4/1
f 14/1/1 12/2/1 24/3/1 25/4/1
f 15/1/1 14/2/1 25/3/1 26/4/1
f 16/1/1 15/2/1 26/3/1 27/4/1
f 18/1/1 16/2/1 27/3/1 28/4/1
f 20/9/1 18/10/1 28/11/1 29/12/1
f 22/13/1 21/14/1 30/15/1 31/16/1
f 23/1/1 22/2/1 31/3/1 32/4/1
f 24/1/1 23/2/1 32/3/1 33/4/1
f 25/1/1 24/2/1 33/3/1 34/4/1
f 26/1/1 25/2/1 34/3/1 35/4/1
f 27/1/1 26/2/1 35/3/1 36/4/1
f 28/1/1 27/2/1 36/3/1 37/4/1
f 29/13/1 28/14/1 37/15/1 38/16/1
f 31/13/1 30/14/1 39/15/1 40/16/1
f 32/1/1 31/2/1 40/3/1 41/4/1
f 33/1/1 32/2/1 41/3/1 42/4/1
f 34/1/1 33/2/1 42/3/1 43/4/1
f 35/1/1 34/2/1 43/3/1 44/4/1
f 36/1/1 35/2/1 44/3/1 45/4/1
f 37/1/1 36/2/1 45/3/1 46/4/1
f 38/13/1 37/14/1 46/15/1 47/16/1
f 40/13/1 39/14/1 48/15/1 49/16/1
f 41/1/1 40/2/1 49/3/1 50/4/1
f 42/1/1 41/2/1 50/3/1 51/4/1
f 43/1/1 42/2/1 51/3/1 52/4/1
f 44/1/1 43/2/1 52/3/1 53/4/1
f 45/1/1 44/2/1 53/3/1 54/4/1
f 46/1/1 45/2/1 54/3/1 55/4/1
f 47/13/1 46/14/1 55/15/1 56/16/1
f 49/17/1 48/18/1 57/19/1 58/20/1
f 50/21/1 49/22/1 58/23/1 59/24/1
f 51/21/1 50/22/1 59/23/1 60/24/1
f 52/21/1 51/22/1 60/23/1 61/24/1
f 53/21/1 52/22/1 61/23/1 62/24/1
f 54/21/1 53/22/1 62/23/1 63/24/1
f 55/25/1 54/26/1 63/27/1 64/28/1
f 56/17/1 55/18/1 64/19/1 65/20/1

g mesh_0002
f 10/29/1 8/30/1 22/31/1 23/32/1
f 12/33/1 10/34/1 23/35/1 24/36/1
f 14/37/1 12/38/1 24/39/1 25/40/1
f 32/41/1 31/42/1 40/43/1 41/44/1
f 44/45/1 43/46/1 52/47/1 53/48/1
f 46/49/1 45/50/1 54/51/1 55/52/1
f 51/53/1 50/54/1 59/55/1 60/56/1
f 53/57/1 52/58/1 61/59/1 62/60/1
f 55/61/1 54/62/1 63/63/1 64/64/1

g mesh_0003
f 66/65/1 67/66/1 68/67/1 2/68/1
f 69/65/1 66/66/1 2/67/1 1/68/1
f 70/65/1 69/66/1 1/67/1 71/68/1
f 72/65/1 73/66/1 6/67/1 5/68/1
f 74/65/1 72/66/1 5/67/1 9/68/1
f 75/65/1 74/66/1 9/67/1 11/68/1
f 68/65/1 75/66/1 11/67/1 13/68/1
f 2/65/1 68/66/1 13/67/1 3/68/1
f 71/65/1 1/66/1 4/67/1 17/68/1
f 76/65/1 71/66/1 17/67/1 19/68/1
f 5/65/1 6/66/1 7/67/1 8/68/1
f 19/65/1 17/66/1 18/67/1 20/68/1
f 8/65/1 7/66/1 21/67/1 22/68/1
f 10/65/1 8/66/1 22/67/1 23/68/1
f 12/65/1 10/66/1 23/67/1 24/68/1
f 14/65/1 12/66/1 24/67/1 25/68/1
f 20/65/1 18/66/1 28/67/1 29/68/1
f 22/65/1 21/66/1 30/67/1 31/68/1
f 29/65/1 28/66/1 37/67/1 38/68/1
f 31/65/1 30/66/1 39/67/1 40/68/1
f 32/65/1 31/66/1 40/67/1 41/68/1
f 38/65/1 37/66/1 46/67/1 47/68/1
f 40/65/1 39/66/1 48/67/1 49/68/1
f 44/65/1 43/66/1 52/67/1 53/68/1
f 46/65/1 45/66/1 54/67/1 55/68/1
f 47/65/1 46/66/1 55/67/1 56/68/1
f 49/65/1 48/66/1 57/67/1 58/68/1
f 50/65/1 49/66/1 58/67/1 59/68/1
f 51/65/1 50/66/1 59/67/1 60/68/1
f 52/65/1 51/66/1 60/67/1 61/68/1
f 53/65/1 52/66/1 61/67/1 62/68/1
f 54/65/1 53/66/1 62/67/1 63/68/1
f 55/65/1 54/66/1 63/67/1 64/68/1
f 56/65/1 55/66/1 64/67/1 65/68/1

